<svg width="22" height="23" viewBox="0 0 22 23" fill="none" xmlns="http://www.w3.org/2000/svg">
<path d="M11.0009 0.878906C5.39222 0.878906 0.845703 5.60729 0.845703 11.4403C0.845703 17.2733 5.39222 22.0017 11.0009 22.0017C16.6096 22.0017 21.1561 17.2733 21.1561 11.4403C21.1561 5.60729 16.6096 0.878906 11.0009 0.878906ZM16.4587 15.4482C16.0253 15.7301 14.2642 15.8141 13.8378 15.4919C13.6039 15.3153 13.3901 15.0943 13.187 14.8838C13.0449 14.7366 12.8837 14.6652 12.7616 14.5055C12.6619 14.3749 12.5935 14.2207 12.4885 14.0916C12.3114 13.8752 12.0389 13.691 11.8233 13.9555C11.4985 14.3534 11.8743 15.1347 11.4413 15.432C11.2961 15.5317 11.1496 15.5605 10.9681 15.5464L10.5662 15.5653C10.3301 15.5702 9.95612 15.5724 9.6875 15.5221C9.38786 15.4658 9.14036 15.2956 8.86932 15.1707C8.35496 14.9334 7.86502 14.6101 7.49212 14.1623C6.47726 12.9428 5.11414 11.2657 4.5846 9.73255C4.4757 9.41749 4.18794 8.79356 4.46074 8.52334C4.83166 8.24306 6.65216 8.16413 6.93618 8.59747C7.05146 8.77365 7.12428 9.03128 7.2059 9.23102C7.30754 9.47996 7.36254 9.71448 7.52138 9.93481C7.66196 10.1302 7.76558 10.3267 7.87426 10.5409C7.99636 10.7814 8.11164 11.012 8.26014 11.2333C8.3609 11.3838 8.62732 11.6833 8.79562 11.7055C9.20658 11.7602 9.18106 10.7217 9.15048 10.4681C9.12122 10.2238 9.11374 9.96455 9.12144 9.71676C9.12804 9.50535 9.1463 9.20745 9.02596 9.03494C8.82972 8.75352 8.39258 8.96401 8.35848 8.5858C8.43064 8.4785 8.41546 8.38332 8.89748 8.21812C9.2772 8.08839 9.5225 8.09251 9.77286 8.11333C10.2833 8.15589 10.8245 8.0122 11.3173 8.18426C11.7881 8.34923 11.7152 9.04501 11.6994 9.46188C11.6781 10.0309 11.7009 10.5864 11.6994 11.1642C11.6987 11.427 11.6886 11.6831 11.9971 11.6616C12.2861 11.6417 12.3156 11.3886 12.4536 11.1799C12.6454 10.8889 12.8216 10.5938 13.017 10.3039C13.2803 9.91193 13.36 9.47149 13.6079 9.06995C13.6966 8.92649 13.7729 8.62081 13.9095 8.50733C14.0129 8.42107 14.2094 8.46614 14.3346 8.46614H14.6322C14.8599 8.46614 15.0922 8.46431 15.3263 8.47278C15.6634 8.4849 16.0409 8.40437 16.3751 8.45356C17.8172 8.6652 14.5625 11.8714 14.7319 12.4438C14.8489 12.8392 15.5914 13.281 15.8594 13.6048C16.2151 14.036 17.3103 14.8934 16.4587 15.4482Z" fill="#4C75A3"/>
</svg>
